<svg width="44" height="45" viewBox="0 0 44 45" fill="none" xmlns="http://www.w3.org/2000/svg">
<g filter="url(#filter0_d_29_42)">
<path fill-rule="evenodd" clip-rule="evenodd" d="M16.3035 10.8126C14.4561 13.5054 13.9212 17.032 15.1799 20.3112L15.3941 20.8691C17.4268 26.1645 23.3674 28.8094 28.6629 26.7767C29.0985 26.6095 29.5162 26.4158 29.9148 26.1982C28.779 27.854 27.147 29.1944 25.1307 29.9684C19.8353 32.0011 13.8947 29.3562 11.862 24.0608L11.6478 23.5029C9.78232 18.6431 11.8565 13.2399 16.3035 10.8126Z" fill="#FFD914"/>
<path d="M22 16L22.6735 18.0729L24.8532 18.0729L23.0898 19.3541L23.7634 21.4271L22 20.1459L20.2366 21.4271L20.9102 19.3541L19.1468 18.0729L21.3265 18.0729L22 16Z" fill="#FFD914"/>
</g>
<defs>
<filter id="filter0_d_29_42" x="0.962891" y="0.812592" width="42.9519" height="43.8407" filterUnits="userSpaceOnUse" color-interpolation-filters="sRGB">
<feFlood flood-opacity="0" result="BackgroundImageFix"/>
<feColorMatrix in="SourceAlpha" type="matrix" values="0 0 0 0 0 0 0 0 0 0 0 0 0 0 0 0 0 0 127 0" result="hardAlpha"/>
<feOffset dx="2" dy="2"/>
<feGaussianBlur stdDeviation="6"/>
<feComposite in2="hardAlpha" operator="out"/>
<feColorMatrix type="matrix" values="0 0 0 0 1 0 0 0 0 1 0 0 0 0 1 0 0 0 0.25 0"/>
<feBlend mode="normal" in2="BackgroundImageFix" result="effect1_dropShadow_29_42"/>
<feBlend mode="normal" in="SourceGraphic" in2="effect1_dropShadow_29_42" result="shape"/>
</filter>
</defs>
</svg>
